<!DOCTYPE svg PUBLIC "-//W3C//DTD SVG 1.1//EN" "http://www.w3.org/Graphics/SVG/1.1/DTD/svg11.dtd">
<!-- Uploaded to: SVG Repo, www.svgrepo.com, Transformed by: SVG Repo Mixer Tools -->
<svg fill="#ff0000" width="800px" height="800px" viewBox="-25.6 -25.6 307.20 307.20" id="Flat" xmlns="http://www.w3.org/2000/svg" stroke="#ff0000">
<g id="SVGRepo_bgCarrier" stroke-width="0">
<rect x="-25.6" y="-25.6" width="307.20" height="307.20" rx="153.6" fill="#1a1a1a" strokewidth="0"/>
</g>
<g id="SVGRepo_tracerCarrier" stroke-linecap="round" stroke-linejoin="round"/>
<g id="SVGRepo_iconCarrier"> <path d="M100,60H40A12.01375,12.01375,0,0,0,28,72v64a12.01375,12.01375,0,0,0,12,12h64v12a36.04061,36.04061,0,0,1-36,36,4,4,0,0,0,0,8,44.04978,44.04978,0,0,0,44-44V72A12.01375,12.01375,0,0,0,100,60Zm4,80H40a4.00458,4.00458,0,0,1-4-4V72a4.00458,4.00458,0,0,1,4-4h60a4.00458,4.00458,0,0,1,4,4ZM216,60H156a12.01375,12.01375,0,0,0-12,12v64a12.01375,12.01375,0,0,0,12,12h64v12a36.04061,36.04061,0,0,1-36,36,4,4,0,0,0,0,8,44.04978,44.04978,0,0,0,44-44V72A12.01375,12.01375,0,0,0,216,60Zm4,80H156a4.00458,4.00458,0,0,1-4-4V72a4.00458,4.00458,0,0,1,4-4h60a4.00458,4.00458,0,0,1,4,4Z"/> </g>
</svg>